#tb 0: 1/25
0,          0,          0,        1,    91796, 4c8297f7f28046125c690222c3214896
0,          1,          1,        1,    92148, ba8df4e34baa5679735980d32ab4dcbb
0,          2,          2,        1,    93280, 82eebd80efb688a5da6779237895a254
0,          3,          3,        1,    91620, 481fe4261a0dcdc7179753c786425a0e
0,          4,          4,        1,    90468, 8fe1fde928524130efd2adb3e5dbfc14
0,          5,          5,        1,    92192, 937ccb039db2a25448c3bf4f7d8dcc82
0,          6,          6,        1,    92208, 07f66e4f355f84c3a1ed85add165bda1
0,          7,          7,        1,    91880, 7a680775a71c0db8a7b06545d489a016
0,          8,          8,        1,    91964, 8c91d9908ec476e6457155fbbc20551a
0,          9,          9,        1,    92320, 99577a047b9b6c9d18370c636e093cb9
0,         10,         10,        1,    92316, 6ee62076a75b457c358aa3da45638c6c
0,         11,         11,        1,    92284, 6c82d57786e0e1010944e6a1c535252e
0,         12,         12,        1,    90932, 0e5bb1fd031143e8001852bd42a2d708
0,         13,         13,        1,    91620, c590080aebc74c4d64090161a43146b5
0,         14,         14,        1,    93124, 4bf756daa31db1a64148ace4e8ec8a17
0,         15,         15,        1,    93152, d9b9edf360b36ac3f54bfd835596294f
0,         16,         16,        1,    92088, efd7436e924eacb2177021bd6b676410
0,         17,         17,        1,    91828, d8434dd3ceb3fb8026e380cec20aeda7
0,         18,         18,        1,    91216, c546d8e3a45395f8037280750dc344fd
0,         19,         19,        1,    90892, 9912d9aaf53dc505cf0be17a4013e893
0,         20,         20,        1,    90416, fecb67be6f80a2c368c3e0c864033363
0,         21,         21,        1,    90288, 9a32f067364f8ac7d145826e5b1af157
0,         22,         22,        1,    90824, 4feb2146c84616ac093a21805961896c
0,         23,         23,        1,    91592, 57f7ca368fd6e578d19a95e4270b932b
0,         24,         24,        1,    92692, 71da3aa27ac6abdbef33c933b3ada49e
0,         25,         25,        1,    91588, 21b36844ab555ca2c8565b16a6cd3cda
0,         26,         26,        1,    90940, c0d4e047f4bcb7741dda13dc093f1ff7
0,         27,         27,        1,    90548, 61e91e2723e3d402efd4166a8d537799
0,         28,         28,        1,    88380, 142ca8a9b848583906a6872559f6afe4
0,         29,         29,        1,    88412, 12ed09ec8ab4b0c933f306eab12bbb2e
0,         30,         30,        1,    89856, b12d495e747e44c624f2f1b54da68488
0,         31,         31,        1,    90764, 6593de0da477a1acef29231046c4e036
0,         32,         32,        1,    91328, 305797e1e5cd779192e71d0c7c62d590
0,         33,         33,        1,    93216, 560d8fd4f3ed691c7a32243412156eae
0,         34,         34,        1,    92044, fee3c383804680b4d7b4516ccd399c70
0,         35,         35,        1,    91148, 78683ab3ed20af28d7a70a6ec46cb51b
0,         36,         36,        1,    90376, 9c42b34763c52af7d4bedbf7f4188c26
0,         37,         37,        1,    90632, a5796dd685a695292fa324565dfd5475
0,         38,         38,        1,    89844, 0c05fd10b989657cf6cb6142dada5dc9
0,         39,         39,        1,    89808, 0524cf03f546d2694cf3743d27da6b85
0,         40,         40,        1,    88900, 0e45ddf73bf25ba03b3ddf4c8fcbe710
0,         41,         41,        1,    90584, 4af285ba46599e268926613f23cffea9
0,         42,         42,        1,    90560, c94bfa84bf549464025aef51c3084abb
0,         43,         43,        1,    90424, c3abba4ca926d22094b58fb3c87d301f
0,         44,         44,        1,    89796, f765800cb70f5601481077442e5e8255
0,         45,         45,        1,    88132, 0670d35d34a3fd6926dd3c5771f8929a
0,         46,         46,        1,    87176, 0068a72ac885f81a37e65b0a9c460d26
0,         47,         47,        1,    87644, 999cd5da8ac0bceb83132ea027ef998e
0,         48,         48,        1,    87712, b7f38fb617599a6fbb7304790e7a8249
0,         49,         49,        1,    86632, fce71c4a72c805cbfe08dbf187f20c5a
